<mxfile host="65bd71144e" modified="2021-02-23T22:56:10.245Z" agent="5.0 (Macintosh; Intel Mac OS X 10_15_7) AppleWebKit/537.36 (KHTML, like Gecko) Code/1.53.2 Chrome/87.0.4280.141 Electron/11.2.1 Safari/537.36" etag="BzvkOELBFKoBrPYoDBFs" version="14.2.4" type="embed">
    <diagram id="6hGFLwfOUW9BJ-s0fimq" name="Page-1">
        <mxGraphModel dx="517" dy="485" grid="1" gridSize="10" guides="1" tooltips="1" connect="1" arrows="1" fold="1" page="1" pageScale="1" pageWidth="827" pageHeight="1169" math="0" shadow="0">
            <root>
                <mxCell id="0"/>
                <mxCell id="1" parent="0"/>
                <mxCell id="38" value="" style="endArrow=none;dashed=1;html=1;entryX=0.5;entryY=1;entryDx=0;entryDy=0;" parent="1" target="37" edge="1">
                    <mxGeometry width="50" height="50" relative="1" as="geometry">
                        <mxPoint x="600" y="800" as="sourcePoint"/>
                        <mxPoint x="460" y="380" as="targetPoint"/>
                    </mxGeometry>
                </mxCell>
                <mxCell id="12" value="" style="group" parent="1" vertex="1" connectable="0">
                    <mxGeometry x="320" y="40" width="80" height="680" as="geometry"/>
                </mxCell>
                <mxCell id="10" value="Scope Controller&lt;br&gt;&amp;nbsp;(ex: network)" style="ellipse;shape=umlEntity;whiteSpace=wrap;html=1;fillColor=#ffe6cc;strokeColor=#d79b00;" parent="12" vertex="1">
                    <mxGeometry width="80" height="80" as="geometry"/>
                </mxCell>
                <mxCell id="11" value="" style="endArrow=none;dashed=1;html=1;entryX=0.5;entryY=1;entryDx=0;entryDy=0;" parent="12" target="10" edge="1">
                    <mxGeometry width="50" height="50" relative="1" as="geometry">
                        <mxPoint x="40" y="760" as="sourcePoint"/>
                        <mxPoint x="260" y="300" as="targetPoint"/>
                    </mxGeometry>
                </mxCell>
                <mxCell id="8" value="" style="group;fillColor=none;" parent="1" vertex="1" connectable="0">
                    <mxGeometry x="160" y="40" width="640" height="760" as="geometry"/>
                </mxCell>
                <mxCell id="15" value="loop" style="shape=umlFrame;whiteSpace=wrap;html=1;fillColor=#ffe6cc;swimlaneFillColor=none;shadow=0;strokeColor=#d79b00;" parent="8" vertex="1">
                    <mxGeometry x="-40" y="180" width="300" height="150" as="geometry"/>
                </mxCell>
                <mxCell id="6" value="Resource&lt;br&gt;Manager" style="ellipse;shape=umlControl;whiteSpace=wrap;html=1;fillColor=#f5f5f5;strokeColor=#666666;fontColor=#333333;" parent="8" vertex="1">
                    <mxGeometry width="80" height="80" as="geometry"/>
                </mxCell>
                <mxCell id="7" value="" style="endArrow=none;dashed=1;html=1;exitX=0.513;exitY=1.038;exitDx=0;exitDy=0;exitPerimeter=0;" parent="8" source="6" edge="1">
                    <mxGeometry width="50" height="50" relative="1" as="geometry">
                        <mxPoint x="45" y="100" as="sourcePoint"/>
                        <mxPoint x="39" y="760" as="targetPoint"/>
                    </mxGeometry>
                </mxCell>
                <mxCell id="16" value="" style="rounded=0;whiteSpace=wrap;html=1;shadow=0;fillColor=#ffe6cc;strokeColor=#d79b00;" parent="8" vertex="1">
                    <mxGeometry x="30" y="160" width="20" height="190" as="geometry"/>
                </mxCell>
                <mxCell id="17" value="" style="endArrow=classic;html=1;fillColor=#dae8fc;strokeColor=#6c8ebf;labelPosition=center;verticalLabelPosition=middle;align=center;verticalAlign=middle;" parent="8" edge="1">
                    <mxGeometry width="50" height="50" relative="1" as="geometry">
                        <mxPoint x="60" y="240" as="sourcePoint"/>
                        <mxPoint x="190" y="240" as="targetPoint"/>
                    </mxGeometry>
                </mxCell>
                <mxCell id="18" value="Create Scope" style="edgeLabel;html=1;align=center;verticalAlign=middle;resizable=0;points=[];" parent="17" vertex="1" connectable="0">
                    <mxGeometry x="-0.3385" y="-3" relative="1" as="geometry">
                        <mxPoint as="offset"/>
                    </mxGeometry>
                </mxCell>
                <mxCell id="19" value="Instantiate and fetch scope data" style="text;html=1;strokeColor=none;fillColor=none;align=center;verticalAlign=middle;whiteSpace=wrap;rounded=0;shadow=0;" parent="8" vertex="1">
                    <mxGeometry x="60" y="190" width="110" height="20" as="geometry"/>
                </mxCell>
                <mxCell id="21" value="" style="endArrow=classic;html=1;labelPosition=center;verticalLabelPosition=middle;align=center;verticalAlign=middle;fillColor=#dae8fc;strokeColor=#6c8ebf;" parent="8" edge="1">
                    <mxGeometry width="50" height="50" relative="1" as="geometry">
                        <mxPoint x="180" y="280" as="sourcePoint"/>
                        <mxPoint x="60" y="280" as="targetPoint"/>
                    </mxGeometry>
                </mxCell>
                <mxCell id="25" value="Return Scope" style="edgeLabel;html=1;align=center;verticalAlign=middle;resizable=0;points=[];" parent="21" vertex="1" connectable="0">
                    <mxGeometry x="0.2" y="2" relative="1" as="geometry">
                        <mxPoint as="offset"/>
                    </mxGeometry>
                </mxCell>
                <mxCell id="22" value="" style="rounded=0;whiteSpace=wrap;html=1;shadow=0;fillColor=#ffe6cc;strokeColor=#d79b00;" parent="8" vertex="1">
                    <mxGeometry x="190" y="220" width="20" height="80" as="geometry"/>
                </mxCell>
                <mxCell id="26" value="Compose Deployment" style="rounded=0;whiteSpace=wrap;html=1;shadow=0;fillColor=#ffe6cc;strokeColor=#d79b00;" parent="8" vertex="1">
                    <mxGeometry x="30" y="370" width="20" height="70" as="geometry"/>
                </mxCell>
                <mxCell id="39" value="loop" style="shape=umlFrame;whiteSpace=wrap;html=1;shadow=0;fillColor=#ffe6cc;strokeColor=#d79b00;" parent="8" vertex="1">
                    <mxGeometry x="-40" y="470" width="680" height="230" as="geometry"/>
                </mxCell>
                <mxCell id="40" value="Create Workloads" style="text;html=1;strokeColor=none;fillColor=none;align=center;verticalAlign=middle;whiteSpace=wrap;rounded=0;shadow=0;" parent="8" vertex="1">
                    <mxGeometry x="70" y="480" width="110" height="20" as="geometry"/>
                </mxCell>
                <mxCell id="42" value="" style="rounded=0;whiteSpace=wrap;html=1;shadow=0;fillColor=#ffe6cc;strokeColor=#d79b00;" parent="8" vertex="1">
                    <mxGeometry x="30" y="460" width="20" height="250" as="geometry"/>
                </mxCell>
                <mxCell id="37" value="Radius Workload RP&lt;br&gt;(ex: container)" style="ellipse;shape=umlEntity;whiteSpace=wrap;html=1;shadow=0;fillColor=#ffe6cc;strokeColor=#d79b00;" parent="8" vertex="1">
                    <mxGeometry x="400" width="80" height="80" as="geometry"/>
                </mxCell>
                <mxCell id="45" value="&lt;p style=&quot;margin: 0px ; margin-top: 4px ; text-align: center ; text-decoration: underline&quot;&gt;&lt;b&gt;Workload&lt;/b&gt;&lt;/p&gt;&lt;hr&gt;&lt;p style=&quot;margin: 0px ; margin-left: 8px&quot;&gt;properties&lt;br&gt;traits&lt;/p&gt;&lt;p style=&quot;margin: 0px ; margin-left: 8px&quot;&gt;scopes&lt;/p&gt;" style="verticalAlign=top;align=left;overflow=fill;fontSize=12;fontFamily=Helvetica;html=1;shadow=0;fillColor=none;gradientColor=#ffffff;" parent="8" vertex="1">
                    <mxGeometry x="80" y="510" width="100" height="80" as="geometry"/>
                </mxCell>
                <mxCell id="46" value="" style="endArrow=classic;html=1;fillColor=#dae8fc;strokeColor=#6c8ebf;" parent="8" edge="1">
                    <mxGeometry width="50" height="50" relative="1" as="geometry">
                        <mxPoint x="60" y="500" as="sourcePoint"/>
                        <mxPoint x="420" y="500" as="targetPoint"/>
                        <Array as="points"/>
                    </mxGeometry>
                </mxCell>
                <mxCell id="47" value="" style="rounded=0;whiteSpace=wrap;html=1;fillColor=#ffe6cc;strokeColor=#d79b00;" parent="8" vertex="1">
                    <mxGeometry x="430" y="480" width="20" height="130" as="geometry"/>
                </mxCell>
                <mxCell id="55" value="" style="endArrow=classic;html=1;exitX=0.676;exitY=0.565;exitDx=0;exitDy=0;exitPerimeter=0;entryX=0.147;entryY=0.565;entryDx=0;entryDy=0;entryPerimeter=0;fillColor=#dae8fc;strokeColor=#6c8ebf;" parent="8" source="39" target="39" edge="1">
                    <mxGeometry width="50" height="50" relative="1" as="geometry">
                        <mxPoint x="220" y="410" as="sourcePoint"/>
                        <mxPoint x="270" y="360" as="targetPoint"/>
                        <Array as="points">
                            <mxPoint x="270" y="600"/>
                        </Array>
                    </mxGeometry>
                </mxCell>
                <mxCell id="57" value="" style="rounded=0;whiteSpace=wrap;html=1;shadow=0;fillColor=#ffe6cc;strokeColor=#d79b00;" parent="8" vertex="1">
                    <mxGeometry x="190" y="610" width="20" height="80" as="geometry"/>
                </mxCell>
                <mxCell id="58" value="Register Workloads" style="text;html=1;strokeColor=none;fillColor=none;align=center;verticalAlign=middle;whiteSpace=wrap;rounded=0;shadow=0;" parent="8" vertex="1">
                    <mxGeometry x="60" y="650" width="120" height="20" as="geometry"/>
                </mxCell>
                <mxCell id="59" value="" style="endArrow=classic;html=1;exitX=0.147;exitY=0.739;exitDx=0;exitDy=0;exitPerimeter=0;entryX=0.324;entryY=0.739;entryDx=0;entryDy=0;entryPerimeter=0;fillColor=#dae8fc;strokeColor=#6c8ebf;" parent="8" source="39" target="39" edge="1">
                    <mxGeometry width="50" height="50" relative="1" as="geometry">
                        <mxPoint x="220" y="590" as="sourcePoint"/>
                        <mxPoint x="270" y="540" as="targetPoint"/>
                    </mxGeometry>
                </mxCell>
                <mxCell id="60" value="" style="endArrow=classic;html=1;exitX=0.324;exitY=0.913;exitDx=0;exitDy=0;exitPerimeter=0;entryX=0.147;entryY=0.913;entryDx=0;entryDy=0;entryPerimeter=0;fillColor=#dae8fc;strokeColor=#6c8ebf;" parent="8" source="39" target="39" edge="1">
                    <mxGeometry width="50" height="50" relative="1" as="geometry">
                        <mxPoint x="220" y="590" as="sourcePoint"/>
                        <mxPoint x="270" y="540" as="targetPoint"/>
                    </mxGeometry>
                </mxCell>
                <mxCell id="61" value="Complete" style="endArrow=classic;html=1;fillColor=#dae8fc;strokeColor=#6c8ebf;" parent="8" edge="1">
                    <mxGeometry width="50" height="50" relative="1" as="geometry">
                        <mxPoint x="30" y="730" as="sourcePoint"/>
                        <mxPoint x="-90" y="730" as="targetPoint"/>
                    </mxGeometry>
                </mxCell>
                <mxCell id="9" value="" style="group" parent="1" vertex="1" connectable="0">
                    <mxGeometry x="40" y="40" width="40" height="680" as="geometry"/>
                </mxCell>
                <mxCell id="2" value="User" style="shape=umlActor;verticalLabelPosition=bottom;labelBackgroundColor=#ffffff;verticalAlign=top;html=1;fillColor=#ffe6cc;strokeColor=#d79b00;" parent="9" vertex="1">
                    <mxGeometry width="40" height="60" as="geometry"/>
                </mxCell>
                <mxCell id="5" value="" style="endArrow=none;dashed=1;html=1;" parent="9" edge="1">
                    <mxGeometry width="50" height="50" relative="1" as="geometry">
                        <mxPoint x="20" y="80" as="sourcePoint"/>
                        <mxPoint x="20" y="760" as="targetPoint"/>
                    </mxGeometry>
                </mxCell>
                <mxCell id="13" value="" style="endArrow=classic;html=1;fillColor=#dae8fc;strokeColor=#6c8ebf;" parent="1" edge="1">
                    <mxGeometry width="50" height="50" relative="1" as="geometry">
                        <mxPoint x="70" y="190" as="sourcePoint"/>
                        <mxPoint x="190" y="190" as="targetPoint"/>
                    </mxGeometry>
                </mxCell>
                <mxCell id="14" value="Deploy Radius" style="edgeLabel;html=1;align=center;verticalAlign=middle;resizable=0;points=[];" parent="13" vertex="1" connectable="0">
                    <mxGeometry x="-0.2167" y="-1" relative="1" as="geometry">
                        <mxPoint as="offset"/>
                    </mxGeometry>
                </mxCell>
                <mxCell id="32" value="" style="group;" parent="1" vertex="1" connectable="0">
                    <mxGeometry x="440" y="40" width="80" height="680" as="geometry"/>
                </mxCell>
                <mxCell id="30" value="Existing Azure RP&lt;br&gt;(ex: vnet)" style="ellipse;shape=umlEntity;whiteSpace=wrap;html=1;fillColor=#f5f5f5;strokeColor=#666666;fontColor=#333333;" parent="32" vertex="1">
                    <mxGeometry width="80" height="80" as="geometry"/>
                </mxCell>
                <mxCell id="31" value="" style="endArrow=none;dashed=1;html=1;entryX=0.5;entryY=1;entryDx=0;entryDy=0;" parent="32" target="30" edge="1">
                    <mxGeometry width="50" height="50" relative="1" as="geometry">
                        <mxPoint x="40" y="760" as="sourcePoint"/>
                        <mxPoint x="20" y="340" as="targetPoint"/>
                    </mxGeometry>
                </mxCell>
                <mxCell id="34" value="Create&lt;br&gt;Resource" style="endArrow=classic;html=1;exitX=0.867;exitY=0.4;exitDx=0;exitDy=0;exitPerimeter=0;dashed=1;dashPattern=1 1;fillColor=#dae8fc;strokeColor=#6c8ebf;" parent="1" source="15" edge="1">
                    <mxGeometry width="50" height="50" relative="1" as="geometry">
                        <mxPoint x="410" y="430" as="sourcePoint"/>
                        <mxPoint x="470" y="280" as="targetPoint"/>
                    </mxGeometry>
                </mxCell>
                <mxCell id="36" value="Resource" style="endArrow=classic;html=1;dashed=1;dashPattern=1 1;entryX=0.867;entryY=0.667;entryDx=0;entryDy=0;entryPerimeter=0;fillColor=#dae8fc;strokeColor=#6c8ebf;" parent="1" target="15" edge="1">
                    <mxGeometry width="50" height="50" relative="1" as="geometry">
                        <mxPoint x="470" y="320" as="sourcePoint"/>
                        <mxPoint x="680" y="340" as="targetPoint"/>
                    </mxGeometry>
                </mxCell>
                <mxCell id="44" value="Existing Azure RP&lt;br&gt;(ex: ACI)" style="ellipse;shape=umlEntity;whiteSpace=wrap;html=1;shadow=0;fillColor=#f5f5f5;strokeColor=#666666;fontColor=#333333;" parent="1" vertex="1">
                    <mxGeometry x="680" y="40" width="80" height="80" as="geometry"/>
                </mxCell>
                <mxCell id="49" value="loop" style="shape=umlFrame;whiteSpace=wrap;html=1;shadow=0;fillColor=#ffe6cc;strokeColor=#d79b00;" parent="1" vertex="1">
                    <mxGeometry x="600" y="520" width="200" height="130" as="geometry"/>
                </mxCell>
                <mxCell id="51" value="" style="endArrow=none;dashed=1;html=1;entryX=0.5;entryY=1;entryDx=0;entryDy=0;" parent="1" target="44" edge="1">
                    <mxGeometry width="50" height="50" relative="1" as="geometry">
                        <mxPoint x="720" y="800" as="sourcePoint"/>
                        <mxPoint x="670" y="410" as="targetPoint"/>
                    </mxGeometry>
                </mxCell>
                <mxCell id="52" value="" style="endArrow=classic;html=1;entryX=0.55;entryY=0.385;entryDx=0;entryDy=0;entryPerimeter=0;fillColor=#dae8fc;strokeColor=#6c8ebf;" parent="1" target="49" edge="1">
                    <mxGeometry width="50" height="50" relative="1" as="geometry">
                        <mxPoint x="620" y="570" as="sourcePoint"/>
                        <mxPoint x="430" y="440" as="targetPoint"/>
                        <Array as="points">
                            <mxPoint x="680" y="570"/>
                        </Array>
                    </mxGeometry>
                </mxCell>
                <mxCell id="53" value="Create&lt;br&gt;Resources" style="text;html=1;strokeColor=none;fillColor=none;align=center;verticalAlign=middle;whiteSpace=wrap;rounded=0;shadow=0;" parent="1" vertex="1">
                    <mxGeometry x="640" y="575" width="40" height="20" as="geometry"/>
                </mxCell>
                <mxCell id="54" value="" style="endArrow=classic;html=1;fillColor=#dae8fc;strokeColor=#6c8ebf;" parent="1" edge="1">
                    <mxGeometry width="50" height="50" relative="1" as="geometry">
                        <mxPoint x="710" y="610" as="sourcePoint"/>
                        <mxPoint x="620" y="610" as="targetPoint"/>
                        <Array as="points"/>
                    </mxGeometry>
                </mxCell>
                <mxCell id="56" value="" style="rounded=0;whiteSpace=wrap;html=1;shadow=0;fillColor=#ffe6cc;strokeColor=#d79b00;" parent="1" vertex="1">
                    <mxGeometry x="710" y="560" width="20" height="60" as="geometry"/>
                </mxCell>
            </root>
        </mxGraphModel>
    </diagram>
</mxfile>